# WaveFront *.obj file (generated by Autodesk ATF)

mtllib Cube.mtl

g Sólido1

v -20.000000 -20.000000 -20.000000
v -20.000000 -20.000000 20.000000
v -20.000000 20.000000 -20.000000
v -20.000000 20.000000 20.000000
v 20.000000 -20.000000 -20.000000
v 20.000000 -20.000000 20.000000
v 20.000000 20.000000 -20.000000
v 20.000000 20.000000 20.000000
vt 4.000000 -2.000000 0.000000
vt 4.000000 2.000000 0.000000
vt 0.000000 2.000000 0.000000
vt 0.000000 -2.000000 0.000000
vt 4.000000 -2.000000 0.000000
vt 4.000000 2.000000 0.000000
vt 0.000000 2.000000 0.000000
vt 0.000000 -2.000000 0.000000
vt 4.000000 -2.000000 0.000000
vt 4.000000 2.000000 0.000000
vt 0.000000 2.000000 0.000000
vt 0.000000 -2.000000 0.000000
vt 4.000000 -2.000000 0.000000
vt 4.000000 2.000000 0.000000
vt 0.000000 2.000000 0.000000
vt 0.000000 -2.000000 0.000000
vt 2.000000 -2.000000 0.000000
vt 2.000000 2.000000 0.000000
vt -2.000000 2.000000 0.000000
vt -2.000000 -2.000000 0.000000
vt 2.000000 -2.000000 0.000000
vt 2.000000 2.000000 0.000000
vt -2.000000 2.000000 0.000000
vt -2.000000 -2.000000 0.000000
vn 0.100000 0.000000 0.000000
vn 0.100000 0.000000 0.000000
vn 0.100000 0.000000 0.000000
vn 0.100000 0.000000 0.000000
vn 0.000000 0.000000 0.100000
vn 0.000000 0.000000 0.100000
vn 0.000000 0.000000 0.100000
vn 0.000000 0.000000 0.100000
vn -0.100000 0.000000 0.000000
vn -0.100000 0.000000 0.000000
vn -0.100000 0.000000 0.000000
vn -0.100000 0.000000 0.000000
vn 0.000000 0.000000 -0.100000
vn 0.000000 0.000000 -0.100000
vn 0.000000 0.000000 -0.100000
vn 0.000000 0.000000 -0.100000
vn 0.000000 0.100000 0.000000
vn 0.000000 0.100000 0.000000
vn 0.000000 0.100000 0.000000
vn 0.000000 0.100000 0.000000
vn 0.000000 -0.100000 0.000000
vn 0.000000 -0.100000 0.000000
vn 0.000000 -0.100000 0.000000
vn 0.000000 -0.100000 0.000000
usemtl 191,191,191
f 7/2/2 8/3/3 5/1/1
f 5/1/1 8/3/3 6/4/4
f 8/6/6 4/7/7 6/5/5
f 6/5/5 4/7/7 2/8/8
f 4/10/10 3/11/11 2/9/9
f 2/9/9 3/11/11 1/12/12
f 3/14/14 7/15/15 1/13/13
f 1/13/13 7/15/15 5/16/16
f 8/18/18 7/19/19 4/17/17
f 4/17/17 7/19/19 3/20/20
f 5/22/22 6/23/23 1/21/21
f 1/21/21 6/23/23 2/24/24

# 8 vertices
# 24 texture params
# 24 normals
# 12 facets

# 1 groups
